<svg width="22" height="19" viewBox="0 0 22 19" fill="none" xmlns="http://www.w3.org/2000/svg">
<path d="M20.4028 6.08419L16.2166 1.40342C15.3866 0.558653 14.0399 0.558653 13.2048 1.40874C12.9386 1.6797 12.7611 2.00379 12.6672 2.34383C11.832 1.69564 10.6315 1.75939 9.86418 2.54041C9.59797 2.81137 9.4205 3.13547 9.32655 3.4755C8.49139 2.82731 7.29086 2.89107 6.52357 3.67208C6.26258 3.93773 6.08511 4.2512 5.99116 4.58592L4.00767 2.58291C3.17773 1.73814 1.83105 1.73814 0.995894 2.58823C0.16596 3.433 0.16596 4.80376 0.995894 5.64853L8.57491 13.3683L4.08074 14.0856C2.86455 14.2609 1.9511 15.3395 1.9511 16.588C1.9511 17.5231 2.70274 18.2882 3.62141 18.2882H14.1235C15.7572 18.2882 17.297 17.64 18.4558 16.4605L20.2096 14.6753C21.3632 13.5012 22 11.9338 22 10.2709C21.9948 8.72477 21.4258 7.23712 20.4028 6.08419ZM19.411 13.8784L17.6572 15.6636C16.7124 16.6252 15.4545 17.1565 14.113 17.1565H3.62141C3.31344 17.1565 3.0629 16.9015 3.0629 16.588C3.0629 15.8973 3.56921 15.3076 4.24777 15.2066L9.83286 14.3141C10.0416 14.2822 10.2087 14.1334 10.2765 13.9315C10.3392 13.7296 10.287 13.5065 10.1408 13.3577L1.78407 4.85157C1.38737 4.44778 1.38737 3.79428 1.78929 3.38518C1.98764 3.18328 2.24862 3.08234 2.50439 3.08234C2.76537 3.08234 3.02114 3.18328 3.21949 3.38518L8.78892 9.05417C9.00815 9.27732 9.35787 9.27732 9.5771 9.05417C9.68671 8.9426 9.7389 8.79915 9.7389 8.65038C9.7389 8.50162 9.68671 8.35817 9.5771 8.24659L7.3013 5.93012C6.9046 5.52633 6.9046 4.87282 7.30652 4.46372C7.70322 4.05993 8.34524 4.05993 8.74194 4.46372L11.0177 6.7802C11.237 7.00335 11.5867 7.00335 11.8059 6.7802C11.9155 6.66863 11.9677 6.52517 11.9677 6.37641C11.9677 6.22764 11.9155 6.08419 11.8059 5.97262L10.6419 4.78782C10.2452 4.38403 10.2452 3.73053 10.6471 3.32142C11.0438 2.91763 11.6859 2.91763 12.0826 3.32142L13.2518 4.51154C13.471 4.72406 13.8155 4.71875 14.0295 4.50091C14.2487 4.27777 14.2487 3.92179 14.0295 3.69865L13.9825 3.65083C13.7894 3.45425 13.685 3.19391 13.685 2.92295C13.685 2.65198 13.7894 2.39164 13.9878 2.18975C14.3844 1.78596 15.0265 1.79127 15.4023 2.1685L19.5728 6.83333C20.4132 7.77373 20.8725 8.99042 20.8725 10.2602C20.8778 11.6363 20.361 12.9167 19.411 13.8784Z" fill="#1C1C1C"/>
</svg>
