<?xml version="1.0" encoding="utf-8"?><svg viewBox="0 0 45.402 45.402" xmlns="http://www.w3.org/2000/svg" xmlns:xlink="http://www.w3.org/1999/xlink"><style>:root>svg{display:none}:root>svg:target{display:block}</style><svg viewBox="0 0 23 22" id="logo-menu" xmlns="http://www.w3.org/2000/svg"><path d="M22.613 9.773L12.294.312a1.17 1.17 0 00-1.59 0L.386 9.772a1.189 1.189 0 00-.306 1.307c.175.461.611.76 1.1.76h1.65v9.478a.68.68 0 00.678.683h5.655a.68.68 0 00.679-.683v-5.754h3.324v5.754a.68.68 0 00.678.683h5.651a.68.68 0 00.679-.683v-9.479h1.648c.49 0 .921-.298 1.1-.759a1.192 1.192 0 00-.31-1.306z"/></svg><svg viewBox="0 0 45.402 45.402" id="plus" xmlns="http://www.w3.org/2000/svg"><path d="M41.267 18.557H26.832V4.134A4.127 4.127 0 0022.707 0a4.126 4.126 0 00-4.124 4.135v14.432H4.141a4.137 4.137 0 00-4.138 4.135 4.143 4.143 0 001.207 2.934 4.122 4.122 0 002.92 1.222h14.453V41.27c0 1.142.453 2.176 1.201 2.922a4.11 4.11 0 002.919 1.211 4.13 4.13 0 004.129-4.133V26.857h14.435c2.283 0 4.134-1.867 4.133-4.15-.001-2.282-1.852-4.15-4.133-4.15z"/></svg><svg viewBox="0 0 22 19" id="point-out" xmlns="http://www.w3.org/2000/svg"><path d="M20.403 6.084l-4.186-4.68a2.102 2.102 0 00-3.012.005 2.144 2.144 0 00-.538.935 2.108 2.108 0 00-2.803.196 2.144 2.144 0 00-.537.935 2.108 2.108 0 00-2.803.197c-.261.266-.439.58-.533.914L4.008 2.583a2.102 2.102 0 00-3.012.005 2.192 2.192 0 000 3.06l7.579 7.72-4.494.718c-1.216.175-2.13 1.253-2.13 2.502 0 .935.752 1.7 1.67 1.7h10.502a6.035 6.035 0 004.333-1.828l1.754-1.785A6.25 6.25 0 0022 10.271a6.339 6.339 0 00-1.597-4.187zm-.992 7.794l-1.754 1.786a4.935 4.935 0 01-3.544 1.493H3.621a.564.564 0 01-.558-.569c0-.69.506-1.28 1.185-1.381l5.585-.893a.56.56 0 00.444-.383.578.578 0 00-.136-.573L1.784 4.852a1.047 1.047 0 01.005-1.467.995.995 0 011.43 0l5.57 5.67a.55.55 0 00.788 0 .567.567 0 00.162-.405.567.567 0 00-.162-.403L7.301 5.93a1.047 1.047 0 01.006-1.466 1.002 1.002 0 011.435 0l2.276 2.316a.548.548 0 00.788 0 .567.567 0 00.162-.404.567.567 0 00-.162-.403l-1.164-1.185a1.047 1.047 0 01.005-1.467 1.002 1.002 0 011.436 0l1.169 1.19a.55.55 0 00.777-.01.572.572 0 000-.802l-.046-.048a1.035 1.035 0 01.005-1.461 1 1 0 011.414-.022l4.17 4.665a5.13 5.13 0 011.3 3.427 5.071 5.071 0 01-1.461 3.618z"/></svg><svg viewBox="0 0 18 15" id="telegram" xmlns="http://www.w3.org/2000/svg"><path d="M7.035 9.73l-.291 3.917c.415 0 .596-.17.812-.378l1.946-1.786 4.031 2.835c.74.395 1.26.187 1.46-.654L17.64 1.757C17.877.711 17.247.3 16.527.56L.97 6.278c-1.062.395-1.045.964-.182 1.22l3.977 1.187 9.239-5.55c.435-.276.829-.125.503.154l-7.47 6.442z"/></svg><svg viewBox="0 0 24 24" id="top-right" xmlns="http://www.w3.org/2000/svg"><path d="M10.525 5.495l-.005 2 4.558.01-9.603 9.585 1.412 1.415 9.63-9.61-.01 4.614 2 .005.018-8-8-.02z"/></svg><svg viewBox="0 0 21 21" id="viber" xmlns="http://www.w3.org/2000/svg"><path d="M13.136.864h-4.43C4.417.864.958 3.977.958 7.841v2.99c0 2.7 1.72 5.153 4.43 6.3v3.34c0 .169.172.323.39.323a.421.421 0 00.257-.09l3.202-2.9h3.899c4.293 0 7.752-3.113 7.752-6.977v-2.99c0-3.86-3.459-6.973-7.752-6.973zm2.913 13.076l-1.108.997c-1.194 1.042-4.258-.155-6.969-2.635-2.71-2.48-3.914-5.289-2.771-6.331l1.108-.997c.445-.369 1.142-.35 1.582.032l1.603 1.502c.41.4.41.997-.035 1.397-.121.11-.258.168-.41.232-.56.155-.85.642-.713 1.152.273 1.106 1.821 2.485 3 2.758.545.123 1.107-.155 1.294-.628.187-.492.799-.765 1.38-.597.172.046.309.155.446.246l1.603 1.502c.4.36.4.974-.01 1.37zm-4.137-8.338c-.122 0-.223 0-.324.032-.187.032-.39-.11-.41-.305-.02-.196.122-.35.324-.369.137-.031.273-.031.41-.031 2.043 0 3.681 1.501 3.712 3.313 0 .123 0 .246-.036.369a.36.36 0 01-.41.29c-.222-.031-.358-.168-.323-.368 0-.109.035-.2.035-.291-.015-1.443-1.345-2.64-2.978-2.64zm2.215 2.667a.36.36 0 01-.41.291c-.172-.031-.324-.154-.324-.29 0-.72-.662-1.32-1.466-1.32a.371.371 0 01-.41-.306c-.035-.168.137-.35.324-.368h.05c1.28 0 2.236.887 2.236 1.993zm2.827 1.056c-.036.169-.223.291-.41.278-.187-.014-.323-.2-.308-.369V9.19a3.23 3.23 0 00.121-.92c0-2.194-1.992-3.987-4.43-3.987h-.324c-.187.032-.39-.123-.39-.305-.034-.168.137-.35.325-.35.136 0 .273-.032.389-.032 2.847 0 5.178 2.085 5.178 4.66a5.4 5.4 0 01-.151 1.07z"/></svg><svg viewBox="0 0 20 21" id="whatsapp" xmlns="http://www.w3.org/2000/svg"><path d="M9.923.854C4.598.854.277 5.175.277 10.501a9.62 9.62 0 001.858 5.695l-1.23 3.637 3.833-1.196a9.624 9.624 0 005.185 1.51c5.326 0 9.647-4.321 9.647-9.646 0-5.326-4.321-9.647-9.647-9.647zm4.417 14.82c-1.751.702-3.839.023-6.123-1.711C5.934 12.229 4.43 9.788 4.33 7.975c-.101-1.812 1.374-2.727 2.177-2.721.802.006 1.683 2.57 1.695 2.963.01.398-.982 1.105-1.022 1.442-.039.337 1.353 1.998 1.942 2.447.583.443 1.79 1.296 2.413 1.217.617-.084 1.027-1.324 1.42-1.403.392-.078 2.536.988 2.75 1.263.212.28.19 1.874-1.364 2.492z"/></svg></svg>